<svg xmlns="http://www.w3.org/2000/svg" xml:space="preserve" width="2000" height="346" data-id="lg_89WZgOWBiz5TRHk1Fn" data-version="1" viewBox="0 0 2000 346"><g data-padding="20"><g transform="translate(565.545 397.498)scale(.98004)"><filter id="a" width="142%" height="148%" x="-21%" y="-24%"><feGaussianBlur in="SourceAlpha" stdDeviation="3"/><feOffset dx="3" dy="3" result="oBlur"/><feFlood flood-color="#000" flood-opacity="1"/><feComposite in2="oBlur" operator="in"/><feMerge><feMergeNode/><feMergeNode in="SourceGraphic"/></feMerge></filter><g filter="url(#a)"><rect width="957" height="204.53" x="-12.565" y="-320.427" fill="none" rx="0" ry="0"/><path fill="#db9b04" stroke="#db9812" stroke-width="1.372" d="M71.425-177.042v15.93H-.615v-96.47q0-13.4 8.51-21.54 5.79-5.43 13.03-7.06t17.74-1.63h32.76v15.93h-35.11q-19.91 0-19.91 16.65v20.63h41.81v15.93h-41.81v41.63Zm19.01-18.46v-92.31h16.29v92.31q0 6.51 1.53 10.59 1.54 4.07 4.8 5.79t6.34 2.26q3.07.54 8.14.54v15.21q-20.27 0-28.69-7.78-8.41-7.79-8.41-26.61Zm72.39-52.5v86.88h-15.93v-71.68h-14.84l7.24-15.2Zm-16.66-18.1q-2.35-3.08-2.35-6.7t2.35-6.6q2.36-2.99 7.24-2.99 4.89 0 7.24 2.99 2.36 2.98 2.36 6.6t-2.36 6.61q-2.35 2.98-7.24 2.98-4.88 0-7.24-2.89Zm40.91 61.54v-83.26h16.29v83.26q0 14.3 7.33 22.17t20.18 7.87q13.4 0 21-7.69t7.6-22.35q0-13.94-8.24-21.99-8.23-8.06-21.63-8.06-11.4 0-19.72 6.52v-16.29q9.95-5.43 21.53-5.43 19.19 0 31.77 12.4t12.58 32.85q0 21.54-13.12 33.39-13.13 11.86-33.04 11.86-19 0-30.77-12.31-11.76-12.31-11.76-32.94Z"/></g></g><g transform="matrix(.88204 0 0 .87224 214.75 395.47)"><filter id="b" width="144%" height="144%" x="-22%" y="-22%"><feGaussianBlur in="SourceAlpha" stdDeviation="3"/><feOffset dx="3" dy="3" result="oBlur"/><feFlood flood-color="#051355" flood-opacity="1"/><feComposite in2="oBlur" operator="in"/><feMerge><feMergeNode/><feMergeNode in="SourceGraphic"/></feMerge></filter><path fill="#db9812" stroke="#db9b04" stroke-width="9" d="M886.206-173.086v-72.04h-368.5v368.5h368.5v-72.04h-6v66.04h-356.5v-356.5h356.5v66.04Z" filter="url(#b)" paint-order="stroke" transform="translate(-184.25 -184.25)"/></g><path fill="#db9b04" d="M955.131 79.054c4.245-3.334 12.956-12.256 15.983-22.417a20528 20528 0 0 1-42.592-53.008c-.688 7.939-7.652 24.62-19.74 30.198a84.7 84.7 0 0 1-13.199 4.995l41.365 50.086c4.668-1.513 13.907-6.487 18.194-9.843m27.932 3.132a136.5 136.5 0 0 1-21.877 10.511 598 598 0 0 1-23.7 8.119v5.42l45.577-16.375Zm-88.4-41.787v15.052l41.077 50.657.043-15.93Z"/><path fill="#db9b04" d="M981.296 76.98a116.6 116.6 0 0 1-19.349 12.024c-6.9 3.46-22.1 8.118-24.45 8.827v1.217c3.917-1.164 13.803-4.128 22.483-7.43 9.631-3.651 23.413-12.3 23.413-12.3Zm-8.298-20.725-.127.424c-3.017 10.732-11.907 19.962-16.68 23.709-4.467 3.524-13.76 8.531-18.683 10.13v2.296c6.912-2.16 16.565-6.732 21.932-10.51 9.208-6.478 18.205-15.485 23.73-23.71l.042.043c-6.223-7.039-40.855-46.667-43.089-49.524-.762 1.44-1.45 2.39-2.562 3.058 11.464 14.3 30.272 37.734 35.14 43.725Z"/><path fill="#db9b04" d="M979.814 65.866s-12.267 12.797-19.39 17.825c-6.034 4.233-15.348 8.404-22.905 10.763v1.588l3.45-1.079c5.578-1.779 15.253-5.007 20.228-7.494 9.843-4.911 18.65-10.87 24.164-16.279l.18-.17Z"/><g transform="translate(545.856 396.949)scale(.98004)"><filter id="c" width="146%" height="148%" x="-23%" y="-24%"><feGaussianBlur in="SourceAlpha" stdDeviation="3"/><feOffset dx="3" dy="3" result="oBlur"/><feFlood flood-color="#000" flood-opacity="1"/><feComposite in2="oBlur" operator="in"/><feMerge><feMergeNode/><feMergeNode in="SourceGraphic"/></feMerge></filter><g filter="url(#c)"><rect width="334.459" height="203.4" x="298.706" y="-319.862" fill="none" rx="0" ry="0"/><path fill="#fff" stroke="#db9812" stroke-width="1.372" d="M328.405-218.672v57.24h-16.92v-126h16.92v52.92h54.72v-52.92h16.92v126h-16.92v-57.24Zm166.68-29.16v86.4h-31.14q-19.98 0-28.62-5.94-7.74-5.22-9.81-12.51t-2.07-19.17v-48.78h15.84v48.6q0 3.24.18 5.49t1.26 5.76 3.06 5.76 5.76 3.96 9.18 1.71h20.52v-71.28Zm22.5 43.2v-82.8h16.2v82.8q0 14.22 7.29 22.05t20.07 7.83q13.32 0 20.88-7.65t7.56-22.23q0-13.86-8.19-21.87t-21.51-8.01q-11.34 0-19.62 6.48v-16.2q9.9-5.4 21.42-5.4 19.08 0 31.59 12.33t12.51 32.67q0 21.42-13.05 33.21t-32.85 11.79q-18.9 0-30.6-12.24t-11.7-32.76Z"/></g></g><path fill="transparent" stroke="transparent" d="M499 0h1002v346H499z"/></g></svg>