<!-- <svg xmlns="http://www.w3.org/2000/svg" width="162" height="56" fillRule="evenodd">
    <path fill="#3c52d9"
          d="M55.27 23.196c.973.99.973 2.594 0 3.583L45.083 37.141a1.64 1.64 0 0 1-2.349 0L30.85 25.052c-.467-.475-.73-1.12-.73-1.792V1.693c0-1.505 1.789-2.259 2.835-1.194l22.314 22.698.001-.001zM10.301 36.504a2.46 2.46 0 0 0 3.523 0l11.29-11.485c.467-.475.729-1.12.729-1.792V1.713c0-1.505-1.789-2.259-2.835-1.195L.73 23.183c-.973.99-.973 2.594 0 3.584l9.571 9.737z"/>
    <g fillRule="nonzero">
        <rect width="18.967" height="19.118" x="18.469" y="32.859" fill="#2ef2ff" rx="3.099"
              transform="rotate(315 27.952 42.418)"/>
        <path fill="#eaedff"
              d="M84.267 39.767l-4.595-6.606-3.924 6.606h-7.48l7.681-11.983-7.95-11.42h7.748l4.461 6.44 3.824-6.44h7.48l-7.58 11.784 8.084 11.618h-7.748l-.001.001zm17.987.232c-2.214 0-4.249-.509-6.105-1.527-1.856-1.04-3.332-2.467-4.427-4.282-1.073-1.837-1.61-3.906-1.61-6.208s.537-4.36 1.61-6.174a11.53 11.53 0 0 1 4.427-4.282c1.856-1.018 3.891-1.527 6.105-1.527 2.236 0 4.27.509 6.104 1.527 1.856 1.018 3.321 2.445 4.394 4.282 1.073 1.815 1.61 3.873 1.61 6.174s-.537 4.371-1.61 6.208a11.6 11.6 0 0 1-4.394 4.282c-1.856 1.018-3.891 1.527-6.104 1.527h0zm0-6.041c1.677 0 2.996-.542 3.957-1.626.984-1.084 1.476-2.534 1.476-4.349 0-1.859-.492-3.319-1.476-4.382-.961-1.084-2.28-1.627-3.957-1.627-1.7 0-3.03.542-3.992 1.627-.962 1.062-1.442 2.523-1.442 4.382 0 1.837.481 3.297 1.442 4.382.962 1.062 2.292 1.593 3.992 1.593zm26.031 5.809l-4.695-8.631h-.705v8.631h-6.574V16.364h10.364c1.901 0 3.511.332 4.83.996 1.32.642 2.315 1.538 2.986 2.689.67 1.129 1.006 2.401 1.006 3.817 0 1.593-.447 2.999-1.342 4.216-.872 1.195-2.158 2.047-3.857 2.556l5.333 9.129h-7.346 0zm-5.4-13.079h3.254c.894 0 1.565-.21 2.012-.631s.671-1.029.671-1.826c0-.752-.235-1.339-.704-1.759-.448-.443-1.107-.664-1.979-.664h-3.254v4.88h0zm30.896 9.261h-8.385l-1.275 3.818h-6.909l8.62-23.402h7.58l8.587 23.403h-6.943l-1.275-3.818v-.001zm-1.643-4.979l-2.549-7.568-2.516 7.569h5.065v-.001z"/>
    </g>
</svg> -->

<svg xmlns="http://www.w3.org/2000/svg" xml:space="preserve" 
width="2000" height="346" data-id="lg_89WZgOWBiz5TRHk1Fn" 
data-version="1" viewBox="0 0 2000 346"><g data-padding="20">
<g transform="translate(565.545 397.498)scale(.98004)">
<filter id="a" width="142%" height="148%" x="-21%" y="-24%">
<feGaussianBlur in="SourceAlpha" stdDeviation="3"/>
<feOffset dx="3" dy="3" result="oBlur"/><feFlood flood-color="#000" flood-opacity="1"/><feComposite in2="oBlur" operator="in"/><feMerge><feMergeNode/><feMergeNode in="SourceGraphic"/></feMerge></filter><g filter="url(#a)"><rect width="957" height="204.53" x="-12.565" y="-320.427" fill="none" rx="0" ry="0"/><path fill="#db9b04" stroke="#db9812" stroke-width="1.372" d="M71.425-177.042v15.93H-.615v-96.47q0-13.4 8.51-21.54 5.79-5.43 13.03-7.06t17.74-1.63h32.76v15.93h-35.11q-19.91 0-19.91 16.65v20.63h41.81v15.93h-41.81v41.63Zm19.01-18.46v-92.31h16.29v92.31q0 6.51 1.53 10.59 1.54 4.07 4.8 5.79t6.34 2.26q3.07.54 8.14.54v15.21q-20.27 0-28.69-7.78-8.41-7.79-8.41-26.61Zm72.39-52.5v86.88h-15.93v-71.68h-14.84l7.24-15.2Zm-16.66-18.1q-2.35-3.08-2.35-6.7t2.35-6.6q2.36-2.99 7.24-2.99 4.89 0 7.24 2.99 2.36 2.98 2.36 6.6t-2.36 6.61q-2.35 2.98-7.24 2.98-4.88 0-7.24-2.89Zm40.91 61.54v-83.26h16.29v83.26q0 14.3 7.33 22.17t20.18 7.87q13.4 0 21-7.69t7.6-22.35q0-13.94-8.24-21.99-8.23-8.06-21.63-8.06-11.4 0-19.72 6.52v-16.29q9.95-5.43 21.53-5.43 19.19 0 31.77 12.4t12.58 32.85q0 21.54-13.12 33.39-13.13 11.86-33.04 11.86-19 0-30.77-12.31-11.76-12.31-11.76-32.94Z"/></g></g><g transform="matrix(.88204 0 0 .87224 214.75 395.47)"><filter id="b" width="144%" height="144%" x="-22%" y="-22%"><feGaussianBlur in="SourceAlpha" stdDeviation="3"/><feOffset dx="3" dy="3" result="oBlur"/><feFlood flood-color="#051355" flood-opacity="1"/><feComposite in2="oBlur" operator="in"/><feMerge><feMergeNode/><feMergeNode in="SourceGraphic"/></feMerge></filter><path fill="#db9812" stroke="#db9b04" stroke-width="9" d="M886.206-173.086v-72.04h-368.5v368.5h368.5v-72.04h-6v66.04h-356.5v-356.5h356.5v66.04Z" filter="url(#b)" paint-order="stroke" transform="translate(-184.25 -184.25)"/></g><path fill="#db9b04" d="M955.131 79.054c4.245-3.334 12.956-12.256 15.983-22.417a20528 20528 0 0 1-42.592-53.008c-.688 7.939-7.652 24.62-19.74 30.198a84.7 84.7 0 0 1-13.199 4.995l41.365 50.086c4.668-1.513 13.907-6.487 18.194-9.843m27.932 3.132a136.5 136.5 0 0 1-21.877 10.511 598 598 0 0 1-23.7 8.119v5.42l45.577-16.375Zm-88.4-41.787v15.052l41.077 50.657.043-15.93Z"/><path fill="#db9b04" d="M981.296 76.98a116.6 116.6 0 0 1-19.349 12.024c-6.9 3.46-22.1 8.118-24.45 8.827v1.217c3.917-1.164 13.803-4.128 22.483-7.43 9.631-3.651 23.413-12.3 23.413-12.3Zm-8.298-20.725-.127.424c-3.017 10.732-11.907 19.962-16.68 23.709-4.467 3.524-13.76 8.531-18.683 10.13v2.296c6.912-2.16 16.565-6.732 21.932-10.51 9.208-6.478 18.205-15.485 23.73-23.71l.042.043c-6.223-7.039-40.855-46.667-43.089-49.524-.762 1.44-1.45 2.39-2.562 3.058 11.464 14.3 30.272 37.734 35.14 43.725Z"/><path fill="#db9b04" d="M979.814 65.866s-12.267 12.797-19.39 17.825c-6.034 4.233-15.348 8.404-22.905 10.763v1.588l3.45-1.079c5.578-1.779 15.253-5.007 20.228-7.494 9.843-4.911 18.65-10.87 24.164-16.279l.18-.17Z"/><g transform="translate(545.856 396.949)scale(.98004)"><filter id="c" width="146%" height="148%" x="-23%" y="-24%"><feGaussianBlur in="SourceAlpha" stdDeviation="3"/><feOffset dx="3" dy="3" result="oBlur"/><feFlood flood-color="#000" flood-opacity="1"/><feComposite in2="oBlur" operator="in"/><feMerge><feMergeNode/><feMergeNode in="SourceGraphic"/></feMerge></filter><g filter="url(#c)"><rect width="334.459" height="203.4" x="298.706" y="-319.862" fill="none" rx="0" ry="0"/><path fill="#fff" stroke="#db9812" stroke-width="1.372" d="M328.405-218.672v57.24h-16.92v-126h16.92v52.92h54.72v-52.92h16.92v126h-16.92v-57.24Zm166.68-29.16v86.4h-31.14q-19.98 0-28.62-5.94-7.74-5.22-9.81-12.51t-2.07-19.17v-48.78h15.84v48.6q0 3.24.18 5.49t1.26 5.76 3.06 5.76 5.76 3.96 9.18 1.71h20.52v-71.28Zm22.5 43.2v-82.8h16.2v82.8q0 14.22 7.29 22.05t20.07 7.83q13.32 0 20.88-7.65t7.56-22.23q0-13.86-8.19-21.87t-21.51-8.01q-11.34 0-19.62 6.48v-16.2q9.9-5.4 21.42-5.4 19.08 0 31.59 12.33t12.51 32.67q0 21.42-13.05 33.21t-32.85 11.79q-18.9 0-30.6-12.24t-11.7-32.76Z"/></g></g><path fill="transparent" stroke="transparent" d="M499 0h1002v346H499z"/>
</g></svg>